<?xml version="1.0" encoding="UTF-8"?>
<svg xmlns="http://www.w3.org/2000/svg" id="Layer_1" data-name="Layer 1" viewBox="0 0 24 24">
  <path d="m23,4h-1c-1.417,0-2.656.149-3.751.39l1.018-1.527c.148-.222.201-.489.148-.75-.052-.262-.203-.488-.426-.636l-.832-.554c-.222-.148-.486-.202-.751-.149-.262.053-.487.204-.636.426l-.897,1.383c-.264-.154-.55-.279-.873-.373v-1.208c0-.551-.448-1-1-1h-1c-.552,0-1,.449-1,1l-.013,1.192c-.314.078-.629.183-.942.32l-.855-1.357c-.295-.466-.913-.605-1.379-.312l-.846.533c-.226.143-.383.365-.442.625-.059.261-.013.529.13.754l.928,1.489c-.779.81-1.316,1.66-1.647,2.263C6.493,2.879,3.702.36,1.094.037.825.003.55.089.343.272c-.218.192-.343.47-.343.76v1.039c0,.481.36.882.856.955,1.534.22,3.074,1.947,3.133,5.287-1.229,1.082-1.989,2.749-1.989,4.687,0,4.764,4.619,9.418,10.744,10.826.508.117.98.175,1.423.175.548,0,1.049-.089,1.514-.269,2.807-1.087,4.32-5.568,4.319-9.231,0-1.898-.442-2.875-.911-3.91-.086-.192-.175-.387-.263-.594-.268-.631-.272-1.136-.015-1.545.75-1.191,3.436-1.403,4.241-1.439.531-.024.947-.463.947-.998v-1.013c0-.551-.448-1-1-1Zm-13.564-.291l-.938-1.486.846-.533.854,1.356c.261.414.784.575,1.244.379.257-.108.521-.196.785-.262.455-.113.772-.51.772-.966v-1.197h1v1.208c0,.442.294.828.731.96.227.069.44.162.638.276.447.261,1.024.122,1.316-.316l.917-1.376.832.555-1.651,2.478s0,.003-.002.004c-3.19,1.073-4.778,2.97-5.404,3.925-.994-.825-2.403-1.58-3.586-1.692.297-.545.793-1.341,1.508-2.084.325-.336.381-.842.136-1.229ZM1,2.071l-.029-1.042c2.355.291,4.884,2.727,5.017,6.189-.366.106-.714.249-1.041.428-.267-3.496-2.104-5.343-3.946-5.575Zm22,3.941c-1.479.068-4.091.406-5.035,1.905-.438.697-.458,1.527-.059,2.469.09.213.182.417.271.615.441.975.821,1.816.822,3.498,0,3.378-1.376,7.406-3.681,8.299-.644.25-1.413.268-2.351.052-5.59-1.285-9.969-5.612-9.969-9.851,0-2.897,1.893-5,4.5-5,1.056,0,2.597.875,3.511,1.73.027.863-.124,4.642-4.682,6.3-.26.094-.394.381-.299.641.073.203.266.329.47.329.057,0,.114-.01.171-.03,5.256-1.911,5.364-6.479,5.334-7.359.369-.691,2.779-4.611,9.995-4.611h1v1.013Z"/>
</svg>
